<svg xmlns="http://www.w3.org/2000/svg" version="1.1" xmlns:xlink="http://www.w3.org/1999/xlink" xmlns:svgjs="http://svgjs.dev/svgjs" width="128" height="128" viewBox="0 0 128 128"><g transform="matrix(0.8046875,0,0,0.8046875,12.221578124999994,12.221578124999994)"><svg viewBox="0 0 96 96" data-background-color="#89939e" preserveAspectRatio="xMidYMid meet" height="128" width="128" xmlns="http://www.w3.org/2000/svg" xmlns:xlink="http://www.w3.org/1999/xlink"><g id="tight-bounds" transform="matrix(1,0,0,1,0.25950000000000273,0.25950000000000273)"><svg viewBox="0 0 95.481 95.481" height="95.481" width="95.481"><g><svg viewBox="0 0 95.481 95.481" height="95.481" width="95.481"><g><svg viewBox="0 0 95.481 95.481" height="95.481" width="95.481"><g id="textblocktransform"><svg viewBox="0 0 95.481 95.481" height="95.481" width="95.481" id="textblock"><g><svg viewBox="0 0 95.481 95.481" height="95.481" width="95.481"><g><svg viewBox="0 0 95.481 95.481" height="95.481" width="95.481"><g><svg xmlns="http://www.w3.org/2000/svg" xmlns:xlink="http://www.w3.org/1999/xlink" version="1.1" x="0" y="0" viewBox="7.85 7.85 84.30000000000001 84.30000000000001" style="enable-background:new 0 0 100 100;" xml:space="preserve" height="95.481" width="95.481" class="icon-icon-0" data-fill-palette-color="accent" id="icon-0"><g fill="#29928e" data-fill-palette-color="accent"><path d="M50 7.85C26.76 7.85 7.85 26.76 7.85 50S26.76 92.15 50 92.15 92.15 73.24 92.15 50 73.24 7.85 50 7.85M50 89.861C28.02 89.861 10.14 71.98 10.14 50S28.02 10.139 50 10.139 89.861 28.02 89.861 49.999 71.98 89.862 50.001 89.862" fill="#29928e" data-fill-palette-color="accent"></path><path d="M50 28.5S42.034 37.368 42.034 48.307C42.034 58.16 44.93 66.33 48.72 67.855 48.905 60.676 50 50.89 50 50.89S51.095 60.676 51.28 67.855C55.07 66.331 57.967 58.161 57.967 48.307 57.966 37.367 50 28.5 50 28.5" fill="#29928e" data-fill-palette-color="accent"></path><path d="M65.991 50.863C58.904 57.71 55.04 65.469 56.577 69.253 61.869 64.4 69.667 58.387 69.667 58.387S63.39 65.974 58.358 71.095C62.087 72.763 69.973 69.168 77.06 62.321 84.928 54.72 85.77 42.83 85.77 42.83S73.858 43.262 65.99 50.863" fill="#29928e" data-fill-palette-color="accent"></path><path d="M14.23 42.83S15.071 54.72 22.94 62.32C30.026 69.169 37.913 72.764 41.642 71.096 36.61 65.974 30.333 58.387 30.333 58.387S38.13 64.399 43.422 69.253C44.961 65.47 41.096 57.71 34.009 50.863 26.142 43.263 14.229 42.83 14.229 42.83" fill="#29928e" data-fill-palette-color="accent"></path></g></svg></g></svg></g></svg></g></svg></g></svg></g></svg></g><defs></defs></svg><rect width="95.481" height="95.481" fill="none" stroke="none" visibility="hidden"></rect></g></svg></g></svg>