<svg xmlns="http://www.w3.org/2000/svg" version="1.1" xmlns:xlink="http://www.w3.org/1999/xlink" xmlns:svgjs="http://svgjs.dev/svgjs" width="128" height="128" viewBox="0 0 128 128"><g transform="matrix(0.8046875,0,0,0.8046875,12.491302274015823,8.985426757812498)"><svg viewBox="0 0 90 96" data-background-color="#1d366f" preserveAspectRatio="xMidYMid meet" height="136" width="128" xmlns="http://www.w3.org/2000/svg" xmlns:xlink="http://www.w3.org/1999/xlink"><g id="tight-bounds" transform="matrix(1,0,0,1,0.007599954743454873,0.25950000000000273)"><svg viewBox="0 0 89.98480009051308 95.481" height="95.481" width="89.98480009051308"><g><svg viewBox="0 0 89.98480009051308 95.481" height="95.481" width="89.98480009051308"><g><svg viewBox="0 0 89.98480009051308 95.481" height="95.481" width="89.98480009051308"><g id="textblocktransform"><svg viewBox="0 0 89.98480009051308 95.481" height="95.481" width="89.98480009051308" id="textblock"><g><svg viewBox="0 0 89.98480009051308 95.481" height="95.481" width="89.98480009051308"><g><svg viewBox="0 0 89.98480009051308 95.481" height="95.481" width="89.98480009051308"><g><svg xmlns="http://www.w3.org/2000/svg" xmlns:xlink="http://www.w3.org/1999/xlink" version="1.1" x="0" y="0" viewBox="5.021973112263306 0.987 92.37104985569337 98.013" enable-background="new 0 0 100 100" xml:space="preserve" height="95.481" width="89.98480009051308" class="icon-icon-0" data-fill-palette-color="accent" id="icon-0"><path d="M97.393 37.15A2.75 2.75 0 0 0 96.566 35.196C88.32 27.121 77.519 22.675 65.969 22.675 61.857 22.675 58 23.249 54 24.366V3.741C54 2.22 53.021 0.987 51.5 0.987S49 2.219 49 3.741V24.297C44 23.228 40.856 22.678 36.835 22.678 25.276 22.678 14.189 27.132 5.937 35.22 5.412 35.735 5.025 36.439 5.022 37.175S5.267 38.618 5.788 39.137L14.829 48.172C10.114 55.182 7.384 63.883 7.295 72.414 7.287 73.149 7.569 73.76 8.086 74.281 8.604 74.805 9.303 75 10.038 75H22.82C24.414 83 28.253 91.225 34.51 97.609 35.025 98.135 35.728 99 36.463 99H36.478C37.207 99 37.908 98.244 38.424 97.729L51.168 84.772 63.909 97.84C64.426 98.356 65.125 99 65.854 99H65.869C66.603 99 67.307 98.129 67.82 97.604 74.078 91.221 77.915 83 79.509 75H92.291C93.026 75 93.73 74.805 94.248 74.281 94.766 73.76 95.053 73.101 95.045 72.366 94.959 63.848 92.24 55.17 87.522 48.146L96.586 39.099C97.105 38.58 97.396 37.885 97.393 37.15M81.977 45.925C81.002 46.9 80.898 48.601 81.734 49.698 86.058 55.373 88.784 62 89.403 70H77.167C75.79 70 74.623 70.861 74.438 72.227 73.44 79.555 70.598 85.803 65.771 91.407L53.111 78.737C52.038 77.663 50.296 77.646 49.22 78.717L36.561 91.349C31.734 85.745 28.89 79.565 27.891 72.232 27.706 70.866 26.54 70 25.163 70H12.926C13.547 62 16.273 55.361 20.597 49.7 21.435 48.603 21.33 46.976 20.352 46L11.675 37.312C18.6 31.432 27.661 28.206 36.834 28.206 40.872 28.206 43.999 28.814 48.999 30.044V43.178C48.999 44.699 49.978 45.932 51.499 45.932S53.999 44.699 53.999 43.178V30.119C57.999 28.834 61.839 28.183 65.968 28.183 75.134 28.183 83.782 31.385 90.702 37.254z" fill="#08c076" data-fill-palette-color="accent"></path></svg></g></svg></g></svg></g></svg></g></svg></g><g></g></svg></g><defs></defs></svg><rect width="89.98480009051308" height="95.481" fill="none" stroke="none" visibility="hidden"></rect></g></svg></g></svg>