<svg width="305" height="50" viewBox="0 0 305 50" fill="none" xmlns="http://www.w3.org/2000/svg">
<g clip-path="url(#clip0_8_116)">
<g clip-path="url(#clip1_8_116)">
<g clip-path="url(#clip2_8_116)">
<path d="M58.667 6.54649C58.667 4.86618 57.9437 3.50403 57.0515 3.50403C56.1594 3.50403 55.4361 4.86618 55.4361 6.54649V43.4535C55.4361 45.1338 56.1594 46.496 57.0515 46.496C57.9437 46.496 58.667 45.1338 58.667 43.4535V6.54649Z" fill="#FEFAE1"/>
<g clip-path="url(#clip3_8_116)">
<g clip-path="url(#clip4_8_116)">
<g clip-path="url(#clip5_8_116)">
<g clip-path="url(#clip6_8_116)">
<path d="M86.6674 9.24608L85.3914 12.6324C83.1011 11.8472 80.9744 11.4546 79.0113 11.4546C77.0482 11.4546 75.445 11.9617 74.2017 12.976C72.9584 13.9903 72.3367 15.2172 72.3367 16.6568C72.3367 18.7181 73.4328 20.3376 75.6249 21.5155L82.5449 25.3435C86.4056 27.5029 88.336 30.284 88.336 33.6867C88.336 36.5005 87.3381 38.7417 85.3423 40.4103C83.3465 42.079 80.5327 42.9133 76.9009 42.9133C73.2692 42.9133 70.0137 42.2589 67.1345 40.9502L68.3614 37.5148C71.0443 38.6926 73.688 39.2816 76.2924 39.2816C78.8902 39.2816 80.8108 38.7744 82.0541 37.7602C83.2974 36.7459 83.919 35.5189 83.919 34.0793C83.919 32.0181 82.823 30.3985 80.6308 29.2207L73.7109 25.3926C69.8501 23.2332 67.9197 20.4521 67.9197 17.0494C67.9197 14.2356 68.9176 11.9944 70.9135 10.3258C72.9093 8.65716 75.5922 7.82283 78.9622 7.82283C81.2525 7.82283 83.8209 8.29725 86.6674 9.24608ZM93.6364 19.945H97.808V36.5823C97.808 37.4984 98.1417 38.2084 98.8092 38.7123C99.4832 39.2227 100.36 39.4779 101.44 39.4779C103.763 39.4779 106.151 38.5618 108.605 36.7295V19.945H112.777V42.3244H110.126L108.9 39.3797C106.38 41.7354 103.583 42.9133 100.507 42.9133C98.5441 42.9133 96.9082 42.3898 95.5995 41.3428C94.2908 40.2958 93.6364 38.7744 93.6364 36.7786V19.945ZM132.545 20.8284L131.318 23.8712C129.65 23.1514 128.079 22.7915 126.607 22.7915C123.76 22.7915 122.337 23.6585 122.337 25.3926C122.337 26.8977 124.238 28.3536 128.04 29.7605C129.44 30.284 130.739 31.102 131.937 32.2144C133.127 33.3268 133.723 34.6683 133.723 36.2387C133.723 38.4963 132.987 40.1748 131.514 41.2741C130.042 42.3669 127.997 42.9133 125.38 42.9133C122.762 42.9133 120.214 42.1935 117.733 40.7539L118.96 37.7111C121.022 38.8889 123.361 39.4779 125.979 39.4779C127.084 39.4779 127.981 39.239 128.668 38.7613C129.362 38.2902 129.708 37.6456 129.708 36.8277C129.708 36.0097 129.316 35.3063 128.531 34.7173C127.739 34.1284 126.787 33.6049 125.674 33.1469C124.568 32.6888 123.456 32.1882 122.337 31.6451C121.231 31.1085 120.282 30.3494 119.49 29.3679C118.705 28.3863 118.313 27.2248 118.313 25.8834C118.313 23.7894 119.026 22.1764 120.452 21.0443C121.872 19.9188 123.678 19.3561 125.871 19.3561C128.063 19.3561 130.288 19.8468 132.545 20.8284ZM150.017 23.0369H143.686V36.4841C143.686 38.4472 144.618 39.4288 146.483 39.4288C147.563 39.4288 148.855 39.118 150.36 38.4963L150.9 41.7845C149.297 42.537 147.612 42.9133 145.845 42.9133C144.078 42.9133 142.606 42.38 141.428 41.3134C140.25 40.2533 139.661 38.6272 139.661 36.4351V23.0369H136.569V19.945H139.661V15.528L142.704 12.7306H143.686V19.945H150.017V23.0369ZM167.586 28.9262V26.7668C167.586 24.1166 166.212 22.7915 163.464 22.7915C161.305 22.7915 159.047 23.4949 156.691 24.9018L155.268 21.9572C158.016 20.2231 160.977 19.3561 164.151 19.3561C166.376 19.3561 168.202 19.9188 169.628 21.0443C171.048 22.1764 171.758 23.9203 171.758 26.276V42.3244H169.108L167.881 39.3797C166.834 40.4594 165.591 41.3166 164.151 41.9514C162.711 42.5927 161.403 42.9133 160.225 42.9133C158.196 42.9133 156.577 42.3571 155.366 41.2447C154.156 40.1322 153.55 38.6763 153.55 36.8768C153.55 31.5764 158.229 28.9262 167.586 28.9262ZM159.44 33.6867C158.818 34.2429 158.402 34.7402 158.193 35.1787C157.977 35.6236 157.869 36.1962 157.869 36.8964C157.869 37.6031 158.173 38.2084 158.782 38.7123C159.384 39.2227 160.176 39.4779 161.157 39.4779C163.219 39.4779 165.362 38.5618 167.586 36.7295V31.8218C163.464 31.8872 160.748 32.5089 159.44 33.6867ZM182.997 14.6642C182.473 15.2074 181.835 15.4789 181.083 15.4789C180.33 15.4789 179.692 15.2074 179.169 14.6642C178.645 14.1277 178.384 13.4831 178.384 12.7306C178.384 11.9781 178.652 11.3302 179.188 10.7871C179.732 10.2505 180.363 9.98225 181.083 9.98225C181.803 9.98225 182.431 10.2505 182.967 10.7871C183.511 11.3302 183.782 11.9781 183.782 12.7306C183.782 13.4831 183.52 14.1277 182.997 14.6642ZM179.022 42.3244V19.945H183.193V42.3244H179.022ZM209.891 25.3926V42.3244H205.72V25.5889C205.72 24.7382 205.383 24.0839 204.709 23.6258C204.041 23.1678 203.151 22.9387 202.039 22.9387C199.716 22.9387 197.311 23.773 194.825 25.4417V42.3244H190.653V19.945H193.303L194.53 22.497C197.049 20.4031 199.781 19.3561 202.726 19.3561C204.918 19.3561 206.659 19.9123 207.948 21.0247C209.244 22.1371 209.891 23.5931 209.891 25.3926ZM220.531 26.5705C220.531 30.3331 221.523 33.3923 223.505 35.748C225.482 38.1037 228.165 39.2816 231.554 39.2816C234.937 39.2816 238.248 38.4472 241.488 36.7786L242.027 40.5085C238.363 42.1117 234.764 42.9133 231.23 42.9133C227.697 42.9133 224.762 42.1182 222.426 40.5281C220.083 38.9446 218.372 36.9422 217.292 34.521C216.213 32.0999 215.673 29.4497 215.673 26.5705C215.673 21.0738 217.276 16.575 220.482 13.0741C223.689 9.57327 227.958 7.82283 233.292 7.82283C235.745 7.82283 238.396 8.26453 241.242 9.14793L240.064 12.5834C237.807 11.8963 235.549 11.5527 233.292 11.5527C229.3 11.5527 226.175 12.8942 223.918 15.5771C221.66 18.26 220.531 21.9245 220.531 26.5705ZM246.788 42.3244V19.945H249.438L250.665 23.8712H250.861C252.661 21.5482 255.131 20.1413 258.272 19.6505L258.714 23.5277C257.176 23.6258 255.687 24.0184 254.248 24.7055C252.808 25.3926 251.712 26.3087 250.96 27.4539V42.3244H246.788ZM271.229 39.4779C273.584 39.4779 275.94 38.7744 278.296 37.3675L279.719 40.3122C276.971 42.0463 274.033 42.9133 270.905 42.9133C267.783 42.9133 265.307 41.9219 263.474 39.9392C261.642 37.963 260.726 35.11 260.726 31.3801C260.726 27.6502 261.675 24.7121 263.572 22.5657C265.47 20.426 267.989 19.3561 271.13 19.3561C273.977 19.3561 276.218 20.2395 277.854 22.0063C278.541 22.7261 279.12 23.773 279.591 25.1472C280.069 26.5214 280.308 28.141 280.308 30.0059L278.786 31.7236H264.898C264.996 36.8931 267.106 39.4779 271.229 39.4779ZM276.185 28.6317C276.185 26.7995 275.711 25.3272 274.762 24.2147C273.813 23.1023 272.56 22.5461 271.003 22.5461C269.452 22.5461 268.137 23.0925 267.057 24.1853C265.977 25.2846 265.323 26.7668 265.094 28.6317H276.185ZM300.528 20.8284V7.08667H304.552V42.3244H301.902L300.675 39.3797C298.221 41.7354 295.692 42.9133 293.088 42.9133C290.49 42.9133 288.34 41.9056 286.639 39.8901C284.938 37.8812 284.087 35.159 284.087 31.7236C284.087 28.2882 285.101 25.4155 287.13 23.1056C289.158 20.8022 291.776 19.6505 294.982 19.6505C296.716 19.6505 298.565 20.0432 300.528 20.8284ZM296.013 22.9878C293.559 22.9878 291.661 23.8221 290.32 25.4908C288.978 27.1594 288.308 29.1879 288.308 31.5764C288.308 33.9648 288.864 35.8788 289.976 37.3185C291.089 38.7581 292.528 39.4779 294.295 39.4779C295.277 39.4779 296.33 39.2063 297.456 38.6632C298.588 38.1266 299.612 37.3839 300.528 36.4351V23.8712C298.99 23.2823 297.485 22.9878 296.013 22.9878Z" fill="#FEFAE1"/>
</g>
</g>
</g>
</g>
<g clip-path="url(#clip7_8_116)">
<g clip-path="url(#clip8_8_116)">
<path d="M46.9783 18.5119C46.9775 18.3279 46.9401 18.1459 46.8684 17.9765C46.7967 17.807 46.692 17.6535 46.5605 17.5248C42.3949 13.4457 36.9387 11.1997 31.1041 11.1997C29.0269 11.1997 27.0784 11.4897 25.0578 12.0539V1.63499C25.0578 0.866639 24.5632 0.243774 23.7949 0.243774C23.0265 0.243774 22.532 0.866134 22.532 1.63499V12.0191C20.0062 11.4791 18.418 11.2012 16.3867 11.2012C10.5475 11.2012 4.94681 13.4512 0.778215 17.537C0.513006 17.7971 0.317508 18.1528 0.315993 18.5246C0.314477 18.8964 0.439757 19.2535 0.702946 19.5157L5.27011 24.0798C2.88828 27.621 1.50918 32.0164 1.46423 36.326C1.46018 36.6973 1.60264 37.0059 1.86381 37.2691C2.12548 37.5338 2.47859 37.6323 2.84988 37.6323H9.30686C10.1121 41.6736 12.0514 45.8286 15.2122 49.0535C15.4724 49.3192 15.8275 49.7562 16.1988 49.7562H16.2064C16.5746 49.7562 16.9287 49.3743 17.1894 49.1141L23.6272 42.5687L30.0634 49.1702C30.3246 49.4309 30.6777 49.7562 31.046 49.7562H31.0536C31.4244 49.7562 31.78 49.3162 32.0391 49.051C35.2004 45.8265 37.1387 41.6736 37.944 37.6323H44.4009C44.7722 37.6323 45.1279 37.5338 45.3895 37.2691C45.6512 37.0059 45.7962 36.673 45.7922 36.3017C45.7487 31.9987 44.3752 27.6149 41.9918 24.0667L46.5706 19.4965C46.8328 19.2343 46.9798 18.8832 46.9783 18.5119ZM39.1907 22.9447C38.6982 23.4373 38.6456 24.2965 39.0679 24.8507C41.2523 27.7175 42.6293 31.0652 42.942 35.1065H36.7609C36.0653 35.1065 35.4757 35.5414 35.3823 36.2315C34.8781 39.9333 33.4425 43.0896 31.0041 45.9205L24.6087 39.5201C24.0667 38.9775 23.1867 38.969 22.6431 39.51L16.2483 45.8912C13.8099 43.0603 12.3732 39.9384 11.8685 36.234C11.7751 35.544 11.1861 35.1065 10.4905 35.1065H4.30879C4.62249 31.0652 5.99957 27.7114 8.18388 24.8517C8.60721 24.2976 8.55417 23.4757 8.06012 22.9826L3.67683 18.5938C7.17508 15.6234 11.7523 13.9938 16.3862 13.9938C18.426 13.9938 20.0057 14.3009 22.5315 14.9223V21.5571C22.5315 22.3254 23.026 22.9483 23.7944 22.9483C24.5627 22.9483 25.0573 22.3254 25.0573 21.5571V14.9601C27.0779 14.311 29.0178 13.9822 31.1036 13.9822C35.7339 13.9822 40.1025 15.5997 43.5982 18.5645L39.1907 22.9447Z" fill="#3D9970"/>
</g>
</g>
</g>
</g>
</g>
<defs>
<clipPath id="clip0_8_116">
<rect width="304.878" height="50" fill="white"/>
</clipPath>
<clipPath id="clip1_8_116">
<rect width="304.246" height="49.5124" fill="white" transform="translate(0.315979 0.243774)"/>
</clipPath>
<clipPath id="clip2_8_116">
<rect width="304.246" height="49.5124" fill="white" transform="translate(0.315979 0.243774)"/>
</clipPath>
<clipPath id="clip3_8_116">
<rect width="237.437" height="35.8266" fill="white" transform="translate(67.1248 7.08667)"/>
</clipPath>
<clipPath id="clip4_8_116">
<rect width="237.437" height="35.8266" fill="white" transform="translate(67.1248 7.08667)"/>
</clipPath>
<clipPath id="clip5_8_116">
<rect width="237.437" height="35.8266" fill="white" transform="translate(67.1248 7.08667)"/>
</clipPath>
<clipPath id="clip6_8_116">
<rect width="237.437" height="35.8266" fill="white" transform="translate(67.1248 7.08667)"/>
</clipPath>
<clipPath id="clip7_8_116">
<rect width="46.6623" height="49.5124" fill="white" transform="translate(0.315979 0.243774)"/>
</clipPath>
<clipPath id="clip8_8_116">
<rect width="46.6623" height="49.5124" fill="white" transform="translate(0.315979 0.243774)"/>
</clipPath>
</defs>
</svg>
