<svg xmlns="http://www.w3.org/2000/svg" version="1.1" xmlns:xlink="http://www.w3.org/1999/xlink" xmlns:svgjs="http://svgjs.dev/svgjs" width="1500" height="378" viewBox="0 0 1500 378"><g transform="matrix(1,0,0,1,-0.9090909090909918,-1.828270462161413)"><svg viewBox="0 0 396 100" data-background-color="#89939e" preserveAspectRatio="xMidYMid meet" height="378" width="1500" xmlns="http://www.w3.org/2000/svg" xmlns:xlink="http://www.w3.org/1999/xlink"><g id="tight-bounds" transform="matrix(1,0,0,1,0.2400000000000091,0.4836694344342334)"><svg viewBox="0 0 395.52 99.03266113113152" height="99.03266113113152" width="395.52"><g><svg viewBox="0 0 544.0173211150995 136.21430777573224" height="99.03266113113152" width="395.52"><g transform="matrix(1,0,0,1,148.4973211150996,42.09219823933055)"><svg viewBox="0 0 395.52 52.02991129707114" height="52.02991129707114" width="395.52"><g id="textblocktransform"><svg viewBox="0 0 395.52 52.02991129707114" height="52.02991129707114" width="395.52" id="textblock"><g><svg viewBox="0 0 395.52 52.02991129707114" height="52.02991129707114" width="395.52"><g transform="matrix(1,0,0,1,0,0)"><svg width="395.52" viewBox="2.05 -37.8 298.71999999999997 39.3" height="52.02991129707114" data-palette-color="#29928e"><path d="M15.6-12.9L6.95-13.45 6.9-13 8.25-5.95 12.2-2.05 16.8-1.55 21.5-4.05 22.4-2.75 18.45 0.4 13.75 1 8.85-0.15 4.6-3.7 2.05-11.2 2.9-17.9 5.5-22.6 10.75-25.5 15.15-26.05 18.65-24.95 21.35-22.5 22.9-18.05 22.95-13.9 22.25-13.35 15.6-12.9ZM13.25-23.8L9.45-21.55 7.5-17.75 7.2-15.5 14.8-15.4 18.25-16.15 17.95-20.8 16.45-23.35 13.25-23.8ZM50.6-8.3L51-2.45 54.55-1.5 54.3 0.25 48.4 0 42.3 0.25 42.4-1.5 45.7-2.5 46.05-7.75 45.85-18.65 44.5-21.95 40.25-22.7 34.8-19.9 34.7-18.15 34.4-13.15 34.5-8.3 34.75-2.5 38.4-1.5 38.15 0.25 32.25 0 26.15 0.25 26.25-1.5 29.55-2.5 29.9-7.75 29.45-22.55 25.9-22.4 25.65-24.15 32.55-25.5 35.05-24.95 34.9-22.4 40.25-25.65 45.35-26 49.95-22.85 50.7-18.85 50.6-8.3ZM68.34 1.5L60.2-18.2 57.95-22.6 54.6-23.5 54.85-25.25 60.95-25 67.4-25.25 67.3-23.5 64.15-22.5 64.95-19.6 68.2-11.25 70.2-3.95 70.34-3.95 71.7-9.05 75.65-19.45 76.45-22.65 72.9-23.5 73.15-25.25 77.7-25 83-25.25 82.9-23.5 79.8-22.5 77.65-17.9 71.5-1.45 70 1.15 68.34 1.5ZM93.44-24.95L93.09-18.15 92.79-13.15 92.94-8.3 93.14-2.5 96.79-1.5 96.54 0.25 90.64 0 84.54 0.25 84.64-1.5 87.94-2.5 88.19-7.75 88.09-17.35 87.84-22.55 84.29-22.4 84.04-24.15 90.94-25.5 93.44-24.95ZM86.39-34.4L87.54-36.25 89.79-37.3 92.09-36.55 93.14-33.95 91.79-31.85 89.54-30.95 87.44-32.25 86.39-34.4ZM107.94-24.95L107.74-20.9 107.94-20.9 111.04-24.45 114.44-25.95 118.19-25 117.34-17.55 115.59-17.9 114.34-23.05 111.09-22 107.54-17.85 107.29-13.15 107.44-8.3 107.64-2.5 112.64-1.5 112.39 0.25 105.14 0 99.04 0.25 99.14-1.5 102.44-2.5 102.69-7.75 102.59-17.35 102.34-22.55 98.79-22.4 98.54-24.15 105.44-25.5 107.94-24.95ZM122.79-4.55L121.14-9.5 121.14-16.05 124.09-22 129.74-25.75 136.59-26 142.84-22.25 146.09-16.25 145.49-7.1 141.79-1.2 134.04 1 127.54-0.25 122.79-4.55ZM129.79-23.2L126.64-17.75 126.39-12.15 126.99-6.35 129.14-2.6 134.44-1.3 139.34-3.45 140.79-11.25 140.29-17.75 138.44-21.9 134.79-23.75 129.79-23.2ZM154.99 0L148.89 0.25 148.99-1.5 152.29-2.5 152.54-7.75 152.74-18.7 152.44-29.85 152.19-34.85 148.64-34.7 148.39-36.45 155.29-37.8 157.79-37.25 157.44-30.65 157.14-13.15 157.29-8.3 157.69-2.5 161.34-1.5 161.09 0.25 154.99 0ZM171.38-24.95L171.08-17.25 171.08-6.35 172.43-3.05 176.63-2.5 182.08-5.75 182.08-11.05 182.03-17.3 181.78-22.5 178.23-22.35 177.98-24.1 184.88-25.45 187.38-24.9 187.03-18.1 186.98-14.1 187.08-11.05 187.08-2.05 190.58-1.05 190.33 0.7 183.48 0.7 182.33-3.5 176.68 0.65 171.58 1 166.98-2.15 166.23-6.15 166.28-16.85 165.78-22.55 162.23-22.4 161.98-24.15 168.88-25.5 171.38-24.95ZM207.28-1.2L204.48 0.5 201.08 1 197.53-0.2 195.93-4.2 196.18-13.5 195.93-21.9 192.48-22.4 192.18-24.15 196.13-25.2 197.93-30.25 200.48-30.25 200.33-24.65 206.38-24.45 206.08-22.25 200.83-21.9 200.63-19.6 200.83-4.45 201.83-1.45 206.53-2.7 207.28-1.2ZM217.88-24.95L217.53-18.15 217.23-13.15 217.38-8.3 217.58-2.5 221.23-1.5 220.98 0.25 215.08 0 208.98 0.25 209.08-1.5 212.38-2.5 212.63-7.75 212.53-17.35 212.28-22.55 208.73-22.4 208.48-24.15 215.38-25.5 217.88-24.95ZM210.83-34.4L211.98-36.25 214.23-37.3 216.53-36.55 217.58-33.95 216.23-31.85 213.98-30.95 211.88-32.25 210.83-34.4ZM225.68-4.55L224.03-9.5 224.03-16.05 226.98-22 232.63-25.75 239.48-26 245.73-22.25 248.98-16.25 248.38-7.1 244.68-1.2 236.93 1 230.43-0.25 225.68-4.55ZM232.68-23.2L229.53-17.75 229.28-12.15 229.88-6.35 232.03-2.6 237.33-1.3 242.23-3.45 243.68-11.25 243.18-17.75 241.33-21.9 237.68-23.75 232.68-23.2ZM276.72-8.3L277.12-2.45 280.67-1.5 280.42 0.25 274.52 0 268.42 0.25 268.52-1.5 271.82-2.5 272.17-7.75 271.97-18.65 270.62-21.95 266.37-22.7 260.92-19.9 260.82-18.15 260.52-13.15 260.62-8.3 260.87-2.5 264.52-1.5 264.27 0.25 258.37 0 252.27 0.25 252.37-1.5 255.67-2.5 256.02-7.75 255.57-22.55 252.02-22.4 251.77-24.15 258.67-25.5 261.17-24.95 261.02-22.4 266.37-25.65 271.47-26 276.07-22.85 276.82-18.85 276.72-8.3ZM285.97-7.5L286.37-1.95 290.52-1.3 295.17-1.95 296.27-5.35 294.92-7.95 285.62-13.6 283.62-16.75 283.52-22.05 287.07-25.05 292.32-26 299.67-24.5 298.62-17.15 296.52-17.85 295.57-23.05 292.12-23.7 288.37-22.85 287.42-20.1 288.62-17.15 298.22-11.65 300.57-8.7 300.77-4 297.37 0 291.37 1 287.22 0.8 282.57-1 283.82-8.2 285.97-7.5Z" opacity="1" transform="matrix(1,0,0,1,0,0)" fill="#29928e" class="wordmark-text-0" data-fill-palette-color="primary" id="text-0"></path></svg></g></svg></g></svg></g></svg></g><g><svg viewBox="0 0 136.21430777573224 136.21430777573224" height="136.21430777573224" width="136.21430777573224"><g><svg xmlns="http://www.w3.org/2000/svg" xmlns:xlink="http://www.w3.org/1999/xlink" version="1.1" x="0" y="0" viewBox="7.85 7.85 84.30000000000001 84.30000000000001" style="enable-background:new 0 0 100 100;" xml:space="preserve" height="136.21430777573224" width="136.21430777573224" class="icon-icon-0" data-fill-palette-color="accent" id="icon-0"><g fill="#29928e" data-fill-palette-color="accent"><path d="M50 7.85C26.76 7.85 7.85 26.76 7.85 50S26.76 92.15 50 92.15 92.15 73.24 92.15 50 73.24 7.85 50 7.85M50 89.861C28.02 89.861 10.14 71.98 10.14 50S28.02 10.139 50 10.139 89.861 28.02 89.861 49.999 71.98 89.862 50.001 89.862" fill="#29928e" data-fill-palette-color="accent"></path><path d="M50 28.5S42.034 37.368 42.034 48.307C42.034 58.16 44.93 66.33 48.72 67.855 48.905 60.676 50 50.89 50 50.89S51.095 60.676 51.28 67.855C55.07 66.331 57.967 58.161 57.967 48.307 57.966 37.367 50 28.5 50 28.5" fill="#29928e" data-fill-palette-color="accent"></path><path d="M65.991 50.863C58.904 57.71 55.04 65.469 56.577 69.253 61.869 64.4 69.667 58.387 69.667 58.387S63.39 65.974 58.358 71.095C62.087 72.763 69.973 69.168 77.06 62.321 84.928 54.72 85.77 42.83 85.77 42.83S73.858 43.262 65.99 50.863" fill="#29928e" data-fill-palette-color="accent"></path><path d="M14.23 42.83S15.071 54.72 22.94 62.32C30.026 69.169 37.913 72.764 41.642 71.096 36.61 65.974 30.333 58.387 30.333 58.387S38.13 64.399 43.422 69.253C44.961 65.47 41.096 57.71 34.009 50.863 26.142 43.263 14.229 42.83 14.229 42.83" fill="#29928e" data-fill-palette-color="accent"></path></g></svg></g></svg></g></svg></g><defs></defs></svg><rect width="395.52" height="99.03266113113152" fill="none" stroke="none" visibility="hidden"></rect></g></svg></g></svg>