<svg width="298" height="49" viewBox="0 0 298 49" fill="none" xmlns="http://www.w3.org/2000/svg">
<g clip-path="url(#clip0_8_165)">
<g clip-path="url(#clip1_8_165)">
<path d="M57.3433 6.39622C57.3433 4.75448 56.6364 3.42358 55.7643 3.42358C54.8923 3.42358 54.1853 4.75448 54.1853 6.39622V42.4562C54.1853 44.0979 54.8923 45.4288 55.7643 45.4288C56.6364 45.4288 57.3433 44.0979 57.3433 42.4562V6.39622Z" fill="white"/>
<g clip-path="url(#clip2_8_165)">
<g clip-path="url(#clip3_8_165)">
<g clip-path="url(#clip4_8_165)">
<g clip-path="url(#clip5_8_165)">
<path d="M84.7124 9.03393L83.4651 12.3426C81.2265 11.5753 79.1478 11.1917 77.229 11.1917C75.3102 11.1917 73.7431 11.6872 72.5279 12.6782C71.3126 13.6692 70.705 14.868 70.705 16.2746C70.705 18.2885 71.7763 19.8709 73.919 21.0217L80.6828 24.7619C84.4565 26.8718 86.3434 29.589 86.3434 32.9136C86.3434 35.6628 85.368 37.8526 83.4172 39.4829C81.4664 41.1133 78.7161 41.9284 75.1663 41.9284C71.6164 41.9284 68.4344 41.2891 65.6201 40.0104L66.8194 36.6538C69.4418 37.8046 72.0258 38.3801 74.5714 38.3801C77.1107 38.3801 78.9879 37.8846 80.2031 36.8936C81.4184 35.9026 82.026 34.7038 82.026 33.2972C82.026 31.2833 80.9547 29.7009 78.812 28.5501L72.0482 24.8099C68.2745 22.7 66.3877 19.9828 66.3877 16.6582C66.3877 13.909 67.3631 11.7192 69.3139 10.0889C71.2647 8.45851 73.887 7.64334 77.181 7.64334C79.4196 7.64334 81.9301 8.10687 84.7124 9.03393ZM91.5242 19.4873H95.6016V35.7427C95.6016 36.6378 95.9278 37.3315 96.5802 37.8238C97.239 38.3225 98.0961 38.5719 99.1514 38.5719C101.422 38.5719 103.757 37.6768 106.155 35.8866V19.4873H110.233V41.353H107.642L106.443 38.476C103.98 40.7776 101.246 41.9284 98.24 41.9284C96.3212 41.9284 94.7222 41.417 93.443 40.394C92.1638 39.3711 91.5242 37.8846 91.5242 35.9346V19.4873ZM129.555 20.3504L128.356 23.3234C126.725 22.6201 125.19 22.2685 123.751 22.2685C120.968 22.2685 119.577 23.1156 119.577 24.8099C119.577 26.2804 121.435 27.7029 125.151 29.0775C126.52 29.589 127.79 30.3882 128.96 31.4751C130.124 32.562 130.706 33.8726 130.706 35.4071C130.706 37.6128 129.987 39.2528 128.548 40.3269C127.109 41.3946 125.11 41.9284 122.551 41.9284C119.993 41.9284 117.502 41.2252 115.078 39.8186L116.277 36.8456C118.292 37.9965 120.578 38.5719 123.137 38.5719C124.218 38.5719 125.094 38.3385 125.765 37.8718C126.443 37.4114 126.782 36.7817 126.782 35.9825C126.782 35.1833 126.399 34.496 125.631 33.9206C124.857 33.3452 123.927 32.8337 122.839 32.3862C121.758 31.9386 120.671 31.4495 119.577 30.9189C118.496 30.3946 117.569 29.6529 116.795 28.6939C116.027 27.7349 115.644 26.6 115.644 25.2894C115.644 23.2435 116.341 21.6675 117.735 20.5614C119.123 19.4617 120.888 18.9119 123.031 18.9119C125.174 18.9119 127.348 19.3914 129.555 20.3504ZM146.633 22.5082H140.444V35.6468C140.444 37.5649 141.356 38.5239 143.179 38.5239C144.234 38.5239 145.497 38.2202 146.968 37.6128L147.496 40.8256C145.929 41.5608 144.282 41.9284 142.555 41.9284C140.828 41.9284 139.389 41.4074 138.238 40.3652C137.086 39.3295 136.511 37.7407 136.511 35.5989V22.5082H133.489V19.4873H136.511V15.1717L139.485 12.4385H140.444V19.4873H146.633V22.5082ZM163.806 28.2624V26.1525C163.806 23.5631 162.463 22.2685 159.776 22.2685C157.666 22.2685 155.459 22.9558 153.157 24.3304L151.765 21.4533C154.452 19.759 157.346 18.9119 160.448 18.9119C162.623 18.9119 164.407 19.4617 165.802 20.5614C167.189 21.6675 167.883 23.3713 167.883 25.673V41.353H165.293L164.094 38.476C163.07 39.5309 161.855 40.3684 160.448 40.9886C159.041 41.6152 157.762 41.9284 156.61 41.9284C154.628 41.9284 153.045 41.385 151.861 40.2981C150.678 39.2112 150.086 37.7887 150.086 36.0305C150.086 30.8517 154.66 28.2624 163.806 28.2624ZM155.843 32.9136C155.235 33.4571 154.829 33.943 154.624 34.3713C154.413 34.8061 154.308 35.3655 154.308 36.0496C154.308 36.7401 154.605 37.3315 155.2 37.8238C155.788 38.3225 156.562 38.5719 157.522 38.5719C159.537 38.5719 161.631 37.6768 163.806 35.8866V31.0915C159.776 31.1554 157.122 31.7628 155.843 32.9136ZM178.869 14.3277C178.357 14.8584 177.733 15.1237 176.998 15.1237C176.262 15.1237 175.639 14.8584 175.127 14.3277C174.615 13.8035 174.359 13.1737 174.359 12.4385C174.359 11.7032 174.622 11.0703 175.146 10.5396C175.677 10.0153 176.294 9.75319 176.998 9.75319C177.701 9.75319 178.315 10.0153 178.84 10.5396C179.371 11.0703 179.636 11.7032 179.636 12.4385C179.636 13.1737 179.38 13.8035 178.869 14.3277ZM174.983 41.353V19.4873H179.061V41.353H174.983ZM205.156 24.8099V41.353H201.079V25.0017C201.079 24.1705 200.75 23.5312 200.091 23.0836C199.438 22.6361 198.568 22.4123 197.481 22.4123C195.211 22.4123 192.86 23.2275 190.429 24.8578V41.353H186.352V19.4873H188.942L190.142 21.9808C192.604 19.9348 195.275 18.9119 198.153 18.9119C200.295 18.9119 201.997 19.4553 203.257 20.5422C204.523 21.6291 205.156 23.0517 205.156 24.8099ZM215.556 25.9607C215.556 29.637 216.525 32.6259 218.463 34.9276C220.395 37.2292 223.017 38.3801 226.331 38.3801C229.637 38.3801 232.874 37.5649 236.04 35.9346L236.567 39.5788C232.986 41.1452 229.468 41.9284 226.014 41.9284C222.56 41.9284 219.691 41.1516 217.408 39.598C215.118 38.0508 213.446 36.0944 212.39 33.7288C211.335 31.3632 210.807 28.7738 210.807 25.9607C210.807 20.5902 212.374 16.1946 215.508 12.7741C218.642 9.3536 222.816 7.64334 228.029 7.64334C230.427 7.64334 233.018 8.0749 235.8 8.93802L234.649 12.2946C232.442 11.6233 230.235 11.2876 228.029 11.2876C224.127 11.2876 221.073 12.5983 218.866 15.2196C216.66 17.841 215.556 21.4213 215.556 25.9607ZM241.221 41.353V19.4873H243.811L245.01 23.3234H245.202C246.961 21.0537 249.376 19.6791 252.446 19.1996L252.877 22.9877C251.374 23.0836 249.919 23.4672 248.512 24.1386C247.105 24.8099 246.034 25.705 245.298 26.8238V41.353H241.221ZM265.11 38.5719C267.412 38.5719 269.715 37.8846 272.018 36.51L273.409 39.387C270.722 41.0813 267.851 41.9284 264.793 41.9284C261.742 41.9284 259.321 40.9598 257.53 39.0226C255.74 37.0918 254.844 34.3042 254.844 30.6599C254.844 27.0156 255.772 24.1449 257.626 22.0479C259.481 19.9572 261.944 18.9119 265.014 18.9119C267.796 18.9119 269.987 19.775 271.586 21.5012C272.257 22.2045 272.823 23.2275 273.284 24.5701C273.751 25.9127 273.984 27.4951 273.984 29.3173L272.497 30.9956H258.922C259.018 36.0464 261.08 38.5719 265.11 38.5719ZM269.955 27.9746C269.955 26.1845 269.491 24.7459 268.564 23.659C267.636 22.5721 266.411 22.0287 264.889 22.0287C263.373 22.0287 262.088 22.5626 261.032 23.6303C259.977 24.7044 259.337 26.1525 259.113 27.9746H269.955ZM293.748 20.3504V6.92407H297.682V41.353H295.091L293.892 38.476C291.493 40.7776 289.021 41.9284 286.476 41.9284C283.937 41.9284 281.835 40.9439 280.173 38.9747C278.51 37.0119 277.678 34.3522 277.678 30.9956C277.678 27.639 278.669 24.8322 280.652 22.5753C282.635 20.3248 285.193 19.1996 288.327 19.1996C290.022 19.1996 291.829 19.5832 293.748 20.3504ZM289.335 22.4603C286.936 22.4603 285.081 23.2754 283.77 24.9058C282.459 26.5361 281.803 28.5181 281.803 30.8517C281.803 33.1853 282.347 35.0554 283.434 36.462C284.522 37.8686 285.929 38.5719 287.656 38.5719C288.615 38.5719 289.645 38.3065 290.745 37.7759C291.852 37.2516 292.853 36.5259 293.748 35.5989V23.3234C292.245 22.748 290.774 22.4603 289.335 22.4603Z" fill="white"/>
</g>
</g>
</g>
</g>
<g clip-path="url(#clip6_8_165)">
<g clip-path="url(#clip7_8_165)">
<path d="M45.9183 18.0872C45.9175 17.9074 45.881 17.7296 45.8109 17.564C45.7408 17.3984 45.6385 17.2485 45.51 17.1227C41.4384 13.1372 36.1052 10.9428 30.4022 10.9428C28.3719 10.9428 26.4674 11.2261 24.4924 11.7774V1.59757C24.4924 0.84685 24.009 0.238281 23.2579 0.238281C22.5069 0.238281 22.0235 0.846357 22.0235 1.59757V11.7433C19.5547 11.2157 18.0023 10.9443 16.0169 10.9443C10.3095 10.9443 4.83507 13.1426 0.760524 17.1346C0.501298 17.3888 0.31021 17.7362 0.308729 18.0995C0.307248 18.4628 0.429702 18.8117 0.686953 19.0679L5.15109 23.5273C2.82298 26.9872 1.475 31.2817 1.43106 35.4923C1.42711 35.8551 1.56635 36.1567 1.82163 36.4138C2.0774 36.6725 2.42254 36.7687 2.78546 36.7687H9.09676C9.88382 40.7173 11.7794 44.7768 14.8689 47.9278C15.1232 48.1874 15.4703 48.6143 15.8332 48.6143H15.8406C16.2006 48.6143 16.5467 48.2412 16.8015 47.987L23.094 41.5919L29.3851 48.0418C29.6404 48.2965 29.9855 48.6143 30.3455 48.6143H30.3529C30.7153 48.6143 31.0629 48.1844 31.3162 47.9253C34.4062 44.7749 36.3008 40.7173 37.0878 36.7687H43.3991C43.762 36.7687 44.1097 36.6725 44.3654 36.4138C44.6212 36.1567 44.7629 35.8314 44.759 35.4687C44.7165 31.2644 43.3739 26.9813 41.0444 23.5144L45.5198 19.0491C45.7761 18.793 45.9198 18.4499 45.9183 18.0872ZM38.3064 22.4182C37.825 22.8995 37.7737 23.739 38.1864 24.2805C40.3215 27.0815 41.6675 30.3523 41.9731 34.3009H35.9314C35.2515 34.3009 34.6753 34.7258 34.5839 35.4C34.0912 39.0169 32.6879 42.1007 30.3045 44.8667L24.0534 38.6132C23.5236 38.0831 22.6635 38.0747 22.1322 38.6033L15.8816 44.838C13.4982 42.0721 12.0939 39.0218 11.6006 35.4025C11.5093 34.7283 10.9336 34.3009 10.2537 34.3009H4.21145C4.51808 30.3523 5.86408 27.0755 7.99912 24.2814C8.4129 23.74 8.36105 22.937 7.87815 22.4552L3.59375 18.1671C7.01307 15.265 11.4871 13.6727 16.0164 13.6727C18.0102 13.6727 19.5542 13.9728 22.023 14.5799V21.0624C22.023 21.8131 22.5064 22.4217 23.2575 22.4217C24.0085 22.4217 24.4919 21.8131 24.4919 21.0624V14.6169C26.4669 13.9827 28.363 13.6613 30.4017 13.6613C34.9276 13.6613 39.1977 15.2418 42.6145 18.1385L38.3064 22.4182Z" fill="white"/>
</g>
</g>
</g>
</g>
<defs>
<clipPath id="clip0_8_165">
<rect width="297.382" height="48.3761" fill="white" transform="translate(0.308716 0.238281)"/>
</clipPath>
<clipPath id="clip1_8_165">
<rect width="297.382" height="48.3761" fill="white" transform="translate(0.308716 0.238281)"/>
</clipPath>
<clipPath id="clip2_8_165">
<rect width="232.081" height="35.0044" fill="white" transform="translate(65.6103 6.92407)"/>
</clipPath>
<clipPath id="clip3_8_165">
<rect width="232.081" height="35.0044" fill="white" transform="translate(65.6103 6.92407)"/>
</clipPath>
<clipPath id="clip4_8_165">
<rect width="232.081" height="35.0044" fill="white" transform="translate(65.6103 6.92407)"/>
</clipPath>
<clipPath id="clip5_8_165">
<rect width="232.081" height="35.0044" fill="white" transform="translate(65.6103 6.92407)"/>
</clipPath>
<clipPath id="clip6_8_165">
<rect width="45.6096" height="48.3761" fill="white" transform="translate(0.308716 0.238281)"/>
</clipPath>
<clipPath id="clip7_8_165">
<rect width="45.6096" height="48.3761" fill="white" transform="translate(0.308716 0.238281)"/>
</clipPath>
</defs>
</svg>
